<?xml version="1.0" standalone="no"?>
<!DOCTYPE svg PUBLIC "-//W3C//DTD SVG 20010904//EN"
 "http://www.w3.org/TR/2001/REC-SVG-20010904/DTD/svg10.dtd">
<svg version="1.0" xmlns="http://www.w3.org/2000/svg"
 width="1024.000000pt" height="1024.000000pt" viewBox="0 0 1024.000000 1024.000000"
 preserveAspectRatio="xMidYMid meet">

<g transform="translate(0.000000,1024.000000) scale(0.100000,-0.100000)"
fill="#000000" stroke="none">
<path d="M7330 7150 c-14 -4 -115 -43 -225 -85 -110 -42 -234 -90 -275 -105
-41 -16 -140 -54 -220 -85 -80 -31 -167 -65 -195 -75 -27 -10 -108 -42 -180
-70 -71 -28 -175 -67 -230 -87 -55 -19 -123 -46 -151 -59 -28 -13 -55 -24 -61
-24 -5 0 -52 -17 -104 -38 -52 -21 -139 -56 -194 -77 -55 -21 -118 -46 -140
-55 -22 -9 -87 -34 -145 -54 -58 -21 -114 -43 -125 -49 -11 -6 -54 -23 -95
-38 -41 -15 -111 -41 -155 -59 -44 -17 -133 -52 -198 -77 -65 -25 -120 -50
-123 -55 -3 -4 661 -8 1489 -8 l1494 0 7 33 c3 17 10 50 15 72 11 47 59 289
71 356 5 25 15 75 24 110 45 188 48 339 8 416 -26 50 -80 96 -131 112 -43 13
-124 13 -161 1z"/>
<path d="M4280 4032 c0 -16 -3 -32 -7 -36 -4 -4 -9 -26 -10 -49 -2 -23 -8 -94
-13 -157 -6 -63 -15 -187 -20 -275 -5 -88 -14 -223 -20 -300 -6 -77 -15 -204
-20 -283 -5 -78 -12 -147 -15 -152 -8 -13 2 -13 67 1 104 22 88 9 501 412 291
285 307 302 290 318 -25 23 -709 526 -733 539 -18 10 -20 7 -20 -18z"/>
<path d="M4930 230 c0 -15 7 -20 25 -20 25 0 25 -1 25 -85 0 -84 0 -85 25 -85
25 0 25 1 25 85 0 84 0 85 25 85 18 0 25 5 25 20 0 18 -7 20 -75 20 -68 0 -75
-2 -75 -20z"/>
<path d="M5090 145 l0 -105 25 0 c24 0 25 3 26 58 1 31 3 48 6 37 20 -89 24
-96 46 -93 17 2 24 14 34 53 l11 50 1 -52 c1 -50 3 -53 26 -53 l25 0 0 106 0
105 -37 -3 c-37 -3 -38 -4 -48 -58 -12 -61 -20 -58 -30 13 -7 47 -7 47 -46 47
l-39 0 0 -105z"/>
</g>
</svg>
